<svg xmlns="http://www.w3.org/2000/svg" viewBox="0 0 512 512" role="img" aria-label="TP icon">
  <defs>
    <linearGradient id="gb" x1="0" y1="0" x2="1" y2="1">
      <stop offset="0%" stop-color="#2e7d32"/>
      <stop offset="100%" stop-color="#795548"/>
    </linearGradient>
    <filter id="shadow" x="-20%" y="-20%" width="140%" height="140%">
      <feDropShadow dx="0" dy="2" stdDeviation="3" flood-color="#000" flood-opacity="0.25"/>
    </filter>
  </defs>
  <g>
    <circle cx="256" cy="256" r="248" fill="#ffffff"/>
    <circle cx="256" cy="256" r="232" fill="url(#gb)"/>
    <circle cx="256" cy="256" r="210" fill="#ffffff"/>
    <g fill="url(#gb)" filter="url(#shadow)">
      <path d="M150 180h132c44 0 74 26 74 64 0 39-30 64-74 64h-56v64h-76V180zm132 52h-56v24h56c11 0 20-5 20-12s-9-12-20-12z"/>
      <path d="M296 180h168v60h-46v132h-76V240h-46v-60z"/>
    </g>
  </g>
</svg>